solid ascii
  facet normal 1.000000e+000 -0.000000e+000 -0.000000e+000
    outer loop
      vertex   6.407187e+001 3.640861e+001 2.266995e-014
      vertex   6.407187e+001 6.483703e+001 1.133497e-014
      vertex   6.407187e+001 3.640861e+001 2.850000e+001
    endloop
  endfacet
  facet normal 1.000000e+000 -0.000000e+000 0.000000e+000
    outer loop
      vertex   6.407187e+001 3.640861e+001 2.850000e+001
      vertex   6.407187e+001 6.483703e+001 1.133497e-014
      vertex   6.407187e+001 9.326545e+001 2.850000e+001
    endloop
  endfacet
  facet normal 1.000000e+000 -0.000000e+000 0.000000e+000
    outer loop
      vertex   6.407187e+001 6.483703e+001 5.700000e+001
      vertex   6.407187e+001 9.326545e+001 2.850000e+001
      vertex   6.407187e+001 9.326545e+001 5.700000e+001
    endloop
  endfacet
  facet normal 1.000000e+000 0.000000e+000 0.000000e+000
    outer loop
      vertex   6.407187e+001 6.483703e+001 5.700000e+001
      vertex   6.407187e+001 3.640861e+001 2.850000e+001
      vertex   6.407187e+001 9.326545e+001 2.850000e+001
    endloop
  endfacet
  facet normal 1.000000e+000 0.000000e+000 0.000000e+000
    outer loop
      vertex   6.407187e+001 6.483703e+001 5.700000e+001
      vertex   6.407187e+001 3.640861e+001 5.700000e+001
      vertex   6.407187e+001 3.640861e+001 2.850000e+001
    endloop
  endfacet
  facet normal 1.000000e+000 -0.000000e+000 0.000000e+000
    outer loop
      vertex   6.407187e+001 6.483703e+001 1.133497e-014
      vertex   6.407187e+001 9.326545e+001 0.000000e+000
      vertex   6.407187e+001 9.326545e+001 2.850000e+001
    endloop
  endfacet
  facet normal 7.105427e-016 -1.000000e+000 0.000000e+000
    outer loop
      vertex   5.407187e+001 3.640861e+001 1.850350e-014
      vertex   6.407187e+001 3.640861e+001 2.266995e-014
      vertex   5.407187e+001 3.640861e+001 2.850000e+001
    endloop
  endfacet
  facet normal 7.105427e-016 -1.000000e+000 0.000000e+000
    outer loop
      vertex   5.407187e+001 3.640861e+001 2.850000e+001
      vertex   6.407187e+001 3.640861e+001 2.266995e-014
      vertex   6.407187e+001 3.640861e+001 2.850000e+001
    endloop
  endfacet
  facet normal 0.000000e+000 -1.000000e+000 0.000000e+000
    outer loop
      vertex   5.407187e+001 3.640861e+001 5.700000e+001
      vertex   6.407187e+001 3.640861e+001 2.850000e+001
      vertex   6.407187e+001 3.640861e+001 5.700000e+001
    endloop
  endfacet
  facet normal 7.105427e-016 -1.000000e+000 2.493132e-016
    outer loop
      vertex   5.407187e+001 3.640861e+001 5.700000e+001
      vertex   5.407187e+001 3.640861e+001 2.850000e+001
      vertex   6.407187e+001 3.640861e+001 2.850000e+001
    endloop
  endfacet
  facet normal -1.000000e+000 0.000000e+000 0.000000e+000
    outer loop
      vertex   5.407187e+001 9.326545e+001 0.000000e+000
      vertex   5.407187e+001 6.483703e+001 9.251750e-015
      vertex   5.407187e+001 9.326545e+001 2.850000e+001
    endloop
  endfacet
  facet normal -1.000000e+000 -0.000000e+000 0.000000e+000
    outer loop
      vertex   5.407187e+001 9.326545e+001 2.850000e+001
      vertex   5.407187e+001 6.483703e+001 9.251750e-015
      vertex   5.407187e+001 3.640861e+001 2.850000e+001
    endloop
  endfacet
  facet normal -1.000000e+000 -0.000000e+000 0.000000e+000
    outer loop
      vertex   5.407187e+001 6.483703e+001 5.700000e+001
      vertex   5.407187e+001 3.640861e+001 2.850000e+001
      vertex   5.407187e+001 3.640861e+001 5.700000e+001
    endloop
  endfacet
  facet normal -1.000000e+000 -0.000000e+000 -0.000000e+000
    outer loop
      vertex   5.407187e+001 6.483703e+001 5.700000e+001
      vertex   5.407187e+001 9.326545e+001 2.850000e+001
      vertex   5.407187e+001 3.640861e+001 2.850000e+001
    endloop
  endfacet
  facet normal -1.000000e+000 0.000000e+000 0.000000e+000
    outer loop
      vertex   5.407187e+001 6.483703e+001 5.700000e+001
      vertex   5.407187e+001 9.326545e+001 5.700000e+001
      vertex   5.407187e+001 9.326545e+001 2.850000e+001
    endloop
  endfacet
  facet normal -1.000000e+000 0.000000e+000 0.000000e+000
    outer loop
      vertex   5.407187e+001 6.483703e+001 9.251750e-015
      vertex   5.407187e+001 3.640861e+001 1.850350e-014
      vertex   5.407187e+001 3.640861e+001 2.850000e+001
    endloop
  endfacet
  facet normal 0.000000e+000 -1.000000e+000 0.000000e+000
    outer loop
      vertex   1.735422e+001 9.326545e+001 0.000000e+000
      vertex   5.407187e+001 9.326545e+001 0.000000e+000
      vertex   1.735422e+001 9.326545e+001 2.850000e+001
    endloop
  endfacet
  facet normal 0.000000e+000 -1.000000e+000 0.000000e+000
    outer loop
      vertex   1.735422e+001 9.326545e+001 2.850000e+001
      vertex   5.407187e+001 9.326545e+001 0.000000e+000
      vertex   5.407187e+001 9.326545e+001 2.850000e+001
    endloop
  endfacet
  facet normal 0.000000e+000 -1.000000e+000 0.000000e+000
    outer loop
      vertex   1.735422e+001 9.326545e+001 5.700000e+001
      vertex   5.407187e+001 9.326545e+001 2.850000e+001
      vertex   5.407187e+001 9.326545e+001 5.700000e+001
    endloop
  endfacet
  facet normal 0.000000e+000 -1.000000e+000 0.000000e+000
    outer loop
      vertex   1.735422e+001 9.326545e+001 5.700000e+001
      vertex   1.735422e+001 9.326545e+001 2.850000e+001
      vertex   5.407187e+001 9.326545e+001 2.850000e+001
    endloop
  endfacet
  facet normal -1.000000e+000 -3.552714e-016 0.000000e+000
    outer loop
      vertex   1.735422e+001 1.032655e+002 1.261764e-015
      vertex   1.735422e+001 9.326545e+001 0.000000e+000
      vertex   1.735422e+001 1.032655e+002 2.850000e+001
    endloop
  endfacet
  facet normal -1.000000e+000 -3.552714e-016 0.000000e+000
    outer loop
      vertex   1.735422e+001 1.032655e+002 2.850000e+001
      vertex   1.735422e+001 9.326545e+001 0.000000e+000
      vertex   1.735422e+001 9.326545e+001 2.850000e+001
    endloop
  endfacet
  facet normal -1.000000e+000 0.000000e+000 -1.246566e-016
    outer loop
      vertex   1.735422e+001 1.032655e+002 5.700000e+001
      vertex   1.735422e+001 9.326545e+001 2.850000e+001
      vertex   1.735422e+001 9.326545e+001 5.700000e+001
    endloop
  endfacet
  facet normal -1.000000e+000 -3.552714e-016 -0.000000e+000
    outer loop
      vertex   1.735422e+001 1.032655e+002 5.700000e+001
      vertex   1.735422e+001 1.032655e+002 2.850000e+001
      vertex   1.735422e+001 9.326545e+001 2.850000e+001
    endloop
  endfacet
  facet normal 0.000000e+000 1.000000e+000 -0.000000e+000
    outer loop
      vertex   5.407187e+001 1.032655e+002 0.000000e+000
      vertex   1.735422e+001 1.032655e+002 1.261764e-015
      vertex   5.407187e+001 1.032655e+002 2.850000e+001
    endloop
  endfacet
  facet normal 0.000000e+000 1.000000e+000 -0.000000e+000
    outer loop
      vertex   5.407187e+001 1.032655e+002 2.850000e+001
      vertex   1.735422e+001 1.032655e+002 1.261764e-015
      vertex   1.735422e+001 1.032655e+002 2.850000e+001
    endloop
  endfacet
  facet normal 0.000000e+000 1.000000e+000 -0.000000e+000
    outer loop
      vertex   5.407187e+001 1.032655e+002 5.700000e+001
      vertex   1.735422e+001 1.032655e+002 2.850000e+001
      vertex   1.735422e+001 1.032655e+002 5.700000e+001
    endloop
  endfacet
  facet normal 0.000000e+000 1.000000e+000 0.000000e+000
    outer loop
      vertex   5.407187e+001 1.032655e+002 5.700000e+001
      vertex   5.407187e+001 1.032655e+002 2.850000e+001
      vertex   1.735422e+001 1.032655e+002 2.850000e+001
    endloop
  endfacet
  facet normal -1.000000e+000 -0.000000e+000 0.000000e+000
    outer loop
      vertex   5.407187e+001 1.798217e+002 1.509670e-014
      vertex   5.407187e+001 1.415436e+002 7.548348e-015
      vertex   5.407187e+001 1.798217e+002 2.850000e+001
    endloop
  endfacet
  facet normal -1.000000e+000 -0.000000e+000 0.000000e+000
    outer loop
      vertex   5.407187e+001 1.798217e+002 2.850000e+001
      vertex   5.407187e+001 1.415436e+002 7.548348e-015
      vertex   5.407187e+001 1.415436e+002 5.700000e+001
    endloop
  endfacet
  facet normal -1.000000e+000 -0.000000e+000 -0.000000e+000
    outer loop
      vertex   5.407187e+001 1.798217e+002 5.700000e+001
      vertex   5.407187e+001 1.798217e+002 2.850000e+001
      vertex   5.407187e+001 1.415436e+002 5.700000e+001
    endloop
  endfacet
  facet normal -1.000000e+000 0.000000e+000 0.000000e+000
    outer loop
      vertex   5.407187e+001 1.032655e+002 0.000000e+000
      vertex   5.407187e+001 1.032655e+002 2.850000e+001
      vertex   5.407187e+001 1.415436e+002 7.548348e-015
    endloop
  endfacet
  facet normal -1.000000e+000 0.000000e+000 0.000000e+000
    outer loop
      vertex   5.407187e+001 1.415436e+002 7.548348e-015
      vertex   5.407187e+001 1.032655e+002 2.850000e+001
      vertex   5.407187e+001 1.415436e+002 5.700000e+001
    endloop
  endfacet
  facet normal -1.000000e+000 -0.000000e+000 0.000000e+000
    outer loop
      vertex   5.407187e+001 1.415436e+002 5.700000e+001
      vertex   5.407187e+001 1.032655e+002 2.850000e+001
      vertex   5.407187e+001 1.032655e+002 5.700000e+001
    endloop
  endfacet
  facet normal 0.000000e+000 1.000000e+000 -0.000000e+000
    outer loop
      vertex   1.040719e+002 1.798217e+002 1.942265e-014
      vertex   5.407187e+001 1.798217e+002 1.509670e-014
      vertex   1.040719e+002 1.798217e+002 2.850000e+001
    endloop
  endfacet
  facet normal 0.000000e+000 1.000000e+000 -0.000000e+000
    outer loop
      vertex   1.040719e+002 1.798217e+002 2.850000e+001
      vertex   5.407187e+001 1.798217e+002 1.509670e-014
      vertex   5.407187e+001 1.798217e+002 2.850000e+001
    endloop
  endfacet
  facet normal 0.000000e+000 1.000000e+000 -0.000000e+000
    outer loop
      vertex   1.040719e+002 1.798217e+002 5.700000e+001
      vertex   5.407187e+001 1.798217e+002 2.850000e+001
      vertex   5.407187e+001 1.798217e+002 5.700000e+001
    endloop
  endfacet
  facet normal 0.000000e+000 1.000000e+000 0.000000e+000
    outer loop
      vertex   1.040719e+002 1.798217e+002 5.700000e+001
      vertex   1.040719e+002 1.798217e+002 2.850000e+001
      vertex   5.407187e+001 1.798217e+002 2.850000e+001
    endloop
  endfacet
  facet normal 1.000000e+000 0.000000e+000 -0.000000e+000
    outer loop
      vertex   1.040719e+002 1.352655e+002 0.000000e+000
      vertex   1.040719e+002 1.798217e+002 1.942265e-014
      vertex   1.040719e+002 1.352655e+002 2.850000e+001
    endloop
  endfacet
  facet normal 1.000000e+000 -0.000000e+000 0.000000e+000
    outer loop
      vertex   1.040719e+002 1.352655e+002 2.850000e+001
      vertex   1.040719e+002 1.798217e+002 1.942265e-014
      vertex   1.040719e+002 1.798217e+002 2.850000e+001
    endloop
  endfacet
  facet normal 1.000000e+000 -0.000000e+000 0.000000e+000
    outer loop
      vertex   1.040719e+002 1.352655e+002 5.700000e+001
      vertex   1.040719e+002 1.798217e+002 2.850000e+001
      vertex   1.040719e+002 1.798217e+002 5.700000e+001
    endloop
  endfacet
  facet normal 1.000000e+000 -0.000000e+000 0.000000e+000
    outer loop
      vertex   1.040719e+002 1.352655e+002 5.700000e+001
      vertex   1.040719e+002 1.352655e+002 2.850000e+001
      vertex   1.040719e+002 1.798217e+002 2.850000e+001
    endloop
  endfacet
  facet normal 0.000000e+000 1.000000e+000 -0.000000e+000
    outer loop
      vertex   1.377996e+002 1.352655e+002 2.535038e-014
      vertex   1.040719e+002 1.352655e+002 0.000000e+000
      vertex   1.377996e+002 1.352655e+002 2.850000e+001
    endloop
  endfacet
  facet normal 0.000000e+000 1.000000e+000 -0.000000e+000
    outer loop
      vertex   1.377996e+002 1.352655e+002 2.850000e+001
      vertex   1.040719e+002 1.352655e+002 0.000000e+000
      vertex   1.040719e+002 1.352655e+002 2.850000e+001
    endloop
  endfacet
  facet normal 0.000000e+000 1.000000e+000 -0.000000e+000
    outer loop
      vertex   1.377996e+002 1.352655e+002 5.700000e+001
      vertex   1.040719e+002 1.352655e+002 2.850000e+001
      vertex   1.040719e+002 1.352655e+002 5.700000e+001
    endloop
  endfacet
  facet normal 0.000000e+000 1.000000e+000 0.000000e+000
    outer loop
      vertex   1.377996e+002 1.352655e+002 5.700000e+001
      vertex   1.377996e+002 1.352655e+002 2.850000e+001
      vertex   1.040719e+002 1.352655e+002 2.850000e+001
    endloop
  endfacet
  facet normal 1.000000e+000 -0.000000e+000 -0.000000e+000
    outer loop
      vertex   1.377996e+002 9.326545e+001 2.565768e-014
      vertex   1.377996e+002 1.352655e+002 2.535038e-014
      vertex   1.377996e+002 9.326545e+001 2.850000e+001
    endloop
  endfacet
  facet normal 1.000000e+000 -0.000000e+000 0.000000e+000
    outer loop
      vertex   1.377996e+002 9.326545e+001 2.850000e+001
      vertex   1.377996e+002 1.352655e+002 2.535038e-014
      vertex   1.377996e+002 1.352655e+002 2.850000e+001
    endloop
  endfacet
  facet normal 1.000000e+000 -0.000000e+000 0.000000e+000
    outer loop
      vertex   1.377996e+002 9.326545e+001 5.700000e+001
      vertex   1.377996e+002 1.352655e+002 2.850000e+001
      vertex   1.377996e+002 1.352655e+002 5.700000e+001
    endloop
  endfacet
  facet normal 1.000000e+000 -0.000000e+000 0.000000e+000
    outer loop
      vertex   1.377996e+002 9.326545e+001 5.700000e+001
      vertex   1.377996e+002 9.326545e+001 2.850000e+001
      vertex   1.377996e+002 1.352655e+002 2.850000e+001
    endloop
  endfacet
  facet normal 0.000000e+000 -1.000000e+000 0.000000e+000
    outer loop
      vertex   6.407187e+001 9.326545e+001 0.000000e+000
      vertex   1.009357e+002 9.326545e+001 1.282884e-014
      vertex   6.407187e+001 9.326545e+001 2.850000e+001
    endloop
  endfacet
  facet normal 0.000000e+000 -1.000000e+000 0.000000e+000
    outer loop
      vertex   6.407187e+001 9.326545e+001 2.850000e+001
      vertex   1.009357e+002 9.326545e+001 1.282884e-014
      vertex   1.009357e+002 9.326545e+001 5.700000e+001
    endloop
  endfacet
  facet normal 0.000000e+000 -1.000000e+000 0.000000e+000
    outer loop
      vertex   6.407187e+001 9.326545e+001 5.700000e+001
      vertex   6.407187e+001 9.326545e+001 2.850000e+001
      vertex   1.009357e+002 9.326545e+001 5.700000e+001
    endloop
  endfacet
  facet normal -0.000000e+000 -1.000000e+000 0.000000e+000
    outer loop
      vertex   1.377996e+002 9.326545e+001 2.565768e-014
      vertex   1.377996e+002 9.326545e+001 2.850000e+001
      vertex   1.009357e+002 9.326545e+001 1.282884e-014
    endloop
  endfacet
  facet normal 0.000000e+000 -1.000000e+000 0.000000e+000
    outer loop
      vertex   1.009357e+002 9.326545e+001 1.282884e-014
      vertex   1.377996e+002 9.326545e+001 2.850000e+001
      vertex   1.009357e+002 9.326545e+001 5.700000e+001
    endloop
  endfacet
  facet normal 0.000000e+000 -1.000000e+000 0.000000e+000
    outer loop
      vertex   1.009357e+002 9.326545e+001 5.700000e+001
      vertex   1.377996e+002 9.326545e+001 2.850000e+001
      vertex   1.377996e+002 9.326545e+001 5.700000e+001
    endloop
  endfacet
  facet normal -3.854956e-016 -3.267450e-017 1.000000e+000
    outer loop
      vertex   1.009357e+002 9.326545e+001 5.700000e+001
      vertex   9.765112e+001 1.320173e+002 5.700000e+001
      vertex   6.407187e+001 9.326545e+001 5.700000e+001
    endloop
  endfacet
  facet normal 2.122273e-015 1.798832e-016 1.000000e+000
    outer loop
      vertex   1.009357e+002 9.326545e+001 5.700000e+001
      vertex   1.040719e+002 1.352655e+002 5.700000e+001
      vertex   9.765112e+001 1.320173e+002 5.700000e+001
    endloop
  endfacet
  facet normal -3.854956e-016 3.671387e-016 1.000000e+000
    outer loop
      vertex   1.009357e+002 9.326545e+001 5.700000e+001
      vertex   1.377996e+002 9.326545e+001 5.700000e+001
      vertex   1.040719e+002 1.352655e+002 5.700000e+001
    endloop
  endfacet
  facet normal -8.426814e-016 0.000000e+000 1.000000e+000
    outer loop
      vertex   1.040719e+002 1.352655e+002 5.700000e+001
      vertex   1.377996e+002 9.326545e+001 5.700000e+001
      vertex   1.377996e+002 1.352655e+002 5.700000e+001
    endloop
  endfacet
  facet normal 2.455292e-015 -4.784131e-016 1.000000e+000
    outer loop
      vertex   1.040719e+002 1.352655e+002 5.700000e+001
      vertex   1.040719e+002 1.798217e+002 5.700000e+001
      vertex   9.765112e+001 1.320173e+002 5.700000e+001
    endloop
  endfacet
  facet normal -3.156438e-017 -1.443961e-016 1.000000e+000
    outer loop
      vertex   9.765112e+001 1.320173e+002 5.700000e+001
      vertex   1.040719e+002 1.798217e+002 5.700000e+001
      vertex   5.407187e+001 1.415436e+002 5.700000e+001
    endloop
  endfacet
  facet normal -1.030849e-015 -3.712527e-016 1.000000e+000
    outer loop
      vertex   5.750267e+001 1.320173e+002 5.700000e+001
      vertex   5.407187e+001 1.415436e+002 5.700000e+001
      vertex   5.407187e+001 1.032655e+002 5.700000e+001
    endloop
  endfacet
  facet normal 0.000000e+000 0.000000e+000 1.000000e+000
    outer loop
      vertex   6.407187e+001 9.326545e+001 5.700000e+001
      vertex   5.407187e+001 1.032655e+002 5.700000e+001
      vertex   5.407187e+001 9.326545e+001 5.700000e+001
    endloop
  endfacet
  facet normal -2.823150e-015 4.998819e-016 1.000000e+000
    outer loop
      vertex   5.750267e+001 8.421296e+001 5.700000e+001
      vertex   5.407187e+001 9.326545e+001 5.700000e+001
      vertex   5.407187e+001 6.483703e+001 5.700000e+001
    endloop
  endfacet
  facet normal -1.420750e-030 4.998819e-016 1.000000e+000
    outer loop
      vertex   6.407187e+001 6.483703e+001 5.700000e+001
      vertex   5.407187e+001 6.483703e+001 5.700000e+001
      vertex   6.407187e+001 3.640861e+001 5.700000e+001
    endloop
  endfacet
  facet normal 0.000000e+000 0.000000e+000 1.000000e+000
    outer loop
      vertex   6.407187e+001 6.483703e+001 5.700000e+001
      vertex   5.750267e+001 8.421296e+001 5.700000e+001
      vertex   5.407187e+001 6.483703e+001 5.700000e+001
    endloop
  endfacet
  facet normal 1.474409e-015 4.998819e-016 1.000000e+000
    outer loop
      vertex   6.407187e+001 6.483703e+001 5.700000e+001
      vertex   6.407187e+001 9.326545e+001 5.700000e+001
      vertex   5.750267e+001 8.421296e+001 5.700000e+001
    endloop
  endfacet
  facet normal 0.000000e+000 1.569829e-015 1.000000e+000
    outer loop
      vertex   5.750267e+001 8.421296e+001 5.700000e+001
      vertex   6.407187e+001 9.326545e+001 5.700000e+001
      vertex   5.407187e+001 9.326545e+001 5.700000e+001
    endloop
  endfacet
  facet normal 0.000000e+000 -1.856264e-016 1.000000e+000
    outer loop
      vertex   1.040719e+002 1.798217e+002 5.700000e+001
      vertex   5.407187e+001 1.798217e+002 5.700000e+001
      vertex   5.407187e+001 1.415436e+002 5.700000e+001
    endloop
  endfacet
  facet normal 0.000000e+000 0.000000e+000 1.000000e+000
    outer loop
      vertex   9.765112e+001 1.320173e+002 5.700000e+001
      vertex   5.407187e+001 1.415436e+002 5.700000e+001
      vertex   5.750267e+001 1.320173e+002 5.700000e+001
    endloop
  endfacet
  facet normal -4.415685e-016 -4.415685e-016 1.000000e+000
    outer loop
      vertex   6.407187e+001 9.326545e+001 5.700000e+001
      vertex   5.750267e+001 1.320173e+002 5.700000e+001
      vertex   5.407187e+001 1.032655e+002 5.700000e+001
    endloop
  endfacet
  facet normal 0.000000e+000 -3.667140e-016 1.000000e+000
    outer loop
      vertex   6.407187e+001 9.326545e+001 5.700000e+001
      vertex   9.765112e+001 1.320173e+002 5.700000e+001
      vertex   5.750267e+001 1.320173e+002 5.700000e+001
    endloop
  endfacet
  facet normal 0.000000e+000 0.000000e+000 1.000000e+000
    outer loop
      vertex   5.407187e+001 1.032655e+002 5.700000e+001
      vertex   1.735422e+001 1.032655e+002 5.700000e+001
      vertex   5.407187e+001 9.326545e+001 5.700000e+001
    endloop
  endfacet
  facet normal 0.000000e+000 0.000000e+000 1.000000e+000
    outer loop
      vertex   5.407187e+001 9.326545e+001 5.700000e+001
      vertex   1.735422e+001 1.032655e+002 5.700000e+001
      vertex   1.735422e+001 9.326545e+001 5.700000e+001
    endloop
  endfacet
  facet normal -7.105427e-016 2.499410e-016 1.000000e+000
    outer loop
      vertex   5.407187e+001 6.483703e+001 5.700000e+001
      vertex   5.407187e+001 3.640861e+001 5.700000e+001
      vertex   6.407187e+001 3.640861e+001 5.700000e+001
    endloop
  endfacet
  facet normal 7.516189e-016 -7.316546e-018 -1.000000e+000
    outer loop
      vertex   1.377996e+002 1.352655e+002 2.535038e-014
      vertex   1.377996e+002 9.326545e+001 2.565768e-014
      vertex   1.040719e+002 1.352655e+002 0.000000e+000
    endloop
  endfacet
  facet normal 3.480059e-016 -3.314342e-016 -1.000000e+000
    outer loop
      vertex   1.040719e+002 1.352655e+002 0.000000e+000
      vertex   1.377996e+002 9.326545e+001 2.565768e-014
      vertex   1.009357e+002 9.326545e+001 1.282884e-014
    endloop
  endfacet
  facet normal 3.480059e-016 2.949688e-017 -1.000000e+000
    outer loop
      vertex   9.765112e+001 1.320173e+002 1.282884e-014
      vertex   1.009357e+002 9.326545e+001 1.282884e-014
      vertex   6.407187e+001 9.326545e+001 0.000000e+000
    endloop
  endfacet
  facet normal 3.986256e-016 3.986256e-016 -1.000000e+000
    outer loop
      vertex   5.750267e+001 1.320173e+002 1.282884e-014
      vertex   6.407187e+001 9.326545e+001 0.000000e+000
      vertex   5.407187e+001 1.032655e+002 0.000000e+000
    endloop
  endfacet
  facet normal 2.086694e-015 1.971975e-016 -1.000000e+000
    outer loop
      vertex   5.407187e+001 1.415436e+002 7.548348e-015
      vertex   5.750267e+001 1.320173e+002 1.282884e-014
      vertex   5.407187e+001 1.032655e+002 0.000000e+000
    endloop
  endfacet
  facet normal -0.000000e+000 -5.543098e-016 -1.000000e+000
    outer loop
      vertex   5.407187e+001 1.415436e+002 7.548348e-015
      vertex   9.765112e+001 1.320173e+002 1.282884e-014
      vertex   5.750267e+001 1.320173e+002 1.282884e-014
    endloop
  endfacet
  facet normal 1.470054e-016 1.181886e-016 -1.000000e+000
    outer loop
      vertex   5.407187e+001 1.415436e+002 7.548348e-015
      vertex   1.040719e+002 1.798217e+002 1.942265e-014
      vertex   9.765112e+001 1.320173e+002 1.282884e-014
    endloop
  endfacet
  facet normal 8.651913e-017 1.971975e-016 -1.000000e+000
    outer loop
      vertex   5.407187e+001 1.415436e+002 7.548348e-015
      vertex   5.407187e+001 1.798217e+002 1.509670e-014
      vertex   1.040719e+002 1.798217e+002 1.942265e-014
    endloop
  endfacet
  facet normal -1.915880e-015 -1.623894e-016 -1.000000e+000
    outer loop
      vertex   1.040719e+002 1.352655e+002 0.000000e+000
      vertex   1.009357e+002 9.326545e+001 1.282884e-014
      vertex   9.765112e+001 1.320173e+002 1.282884e-014
    endloop
  endfacet
  facet normal -2.218550e-015 4.359133e-016 -1.000000e+000
    outer loop
      vertex   1.040719e+002 1.798217e+002 1.942265e-014
      vertex   1.040719e+002 1.352655e+002 0.000000e+000
      vertex   9.765112e+001 1.320173e+002 1.282884e-014
    endloop
  endfacet
  facet normal -1.403434e-015 -3.987198e-016 -1.000000e+000
    outer loop
      vertex   6.407187e+001 6.483703e+001 1.133497e-014
      vertex   5.750267e+001 8.421296e+001 1.282884e-014
      vertex   6.407187e+001 9.326545e+001 0.000000e+000
    endloop
  endfacet
  facet normal 2.083225e-016 1.477283e-016 -1.000000e+000
    outer loop
      vertex   6.407187e+001 6.483703e+001 1.133497e-014
      vertex   5.407187e+001 6.483703e+001 9.251750e-015
      vertex   5.750267e+001 8.421296e+001 1.282884e-014
    endloop
  endfacet
  facet normal 2.083225e-016 -3.254401e-016 -1.000000e+000
    outer loop
      vertex   6.407187e+001 6.483703e+001 1.133497e-014
      vertex   5.407187e+001 3.640861e+001 1.850350e-014
      vertex   5.407187e+001 6.483703e+001 9.251750e-015
    endloop
  endfacet
  facet normal 4.166450e-016 -3.987198e-016 -1.000000e+000
    outer loop
      vertex   6.407187e+001 6.483703e+001 1.133497e-014
      vertex   6.407187e+001 3.640861e+001 2.266995e-014
      vertex   5.407187e+001 3.640861e+001 1.850350e-014
    endloop
  endfacet
  facet normal 2.880605e-015 -3.254401e-016 -1.000000e+000
    outer loop
      vertex   5.407187e+001 6.483703e+001 9.251750e-015
      vertex   5.407187e+001 9.326545e+001 0.000000e+000
      vertex   5.750267e+001 8.421296e+001 1.282884e-014
    endloop
  endfacet
  facet normal 0.000000e+000 -1.417162e-015 -1.000000e+000
    outer loop
      vertex   5.750267e+001 8.421296e+001 1.282884e-014
      vertex   5.407187e+001 9.326545e+001 0.000000e+000
      vertex   6.407187e+001 9.326545e+001 0.000000e+000
    endloop
  endfacet
  facet normal 0.000000e+000 0.000000e+000 -1.000000e+000
    outer loop
      vertex   6.407187e+001 9.326545e+001 0.000000e+000
      vertex   5.407187e+001 9.326545e+001 0.000000e+000
      vertex   5.407187e+001 1.032655e+002 0.000000e+000
    endloop
  endfacet
  facet normal -0.000000e+000 -0.000000e+000 -1.000000e+000
    outer loop
      vertex   5.407187e+001 1.032655e+002 0.000000e+000
      vertex   5.407187e+001 9.326545e+001 0.000000e+000
      vertex   1.735422e+001 9.326545e+001 0.000000e+000
    endloop
  endfacet
  facet normal -3.436397e-017 1.261764e-016 -1.000000e+000
    outer loop
      vertex   1.735422e+001 1.032655e+002 1.261764e-015
      vertex   5.407187e+001 1.032655e+002 0.000000e+000
      vertex   1.735422e+001 9.326545e+001 0.000000e+000
    endloop
  endfacet
  facet normal 0.000000e+000 3.310508e-016 -1.000000e+000
    outer loop
      vertex   5.750267e+001 1.320173e+002 1.282884e-014
      vertex   9.765112e+001 1.320173e+002 1.282884e-014
      vertex   6.407187e+001 9.326545e+001 0.000000e+000
    endloop
  endfacet
endsolid
